<svg width="16" height="16" viewBox="0 0 16 16" fill="none" xmlns="http://www.w3.org/2000/svg">
<path fill-rule="evenodd" clip-rule="evenodd" d="M2.6665 8.00008C2.6665 7.63189 2.96498 7.33341 3.33317 7.33341H12.6665C13.0347 7.33341 13.3332 7.63189 13.3332 8.00008C13.3332 8.36827 13.0347 8.66675 12.6665 8.66675H3.33317C2.96498 8.66675 2.6665 8.36827 2.6665 8.00008Z" fill="#E8E8E8"/>
<path fill-rule="evenodd" clip-rule="evenodd" d="M7.52843 2.86201C7.78878 2.60166 8.21089 2.60166 8.47124 2.86201L13.1379 7.52868C13.3983 7.78903 13.3983 8.21114 13.1379 8.47149L8.47124 13.1382C8.21089 13.3985 7.78878 13.3985 7.52843 13.1382C7.26808 12.8778 7.26808 12.4557 7.52843 12.1953L11.7237 8.00008L7.52843 3.80482C7.26808 3.54447 7.26808 3.12236 7.52843 2.86201Z" fill="#E8E8E8"/>
</svg>
