<svg width="20" height="20" viewBox="0 0 20 20" fill="none" xmlns="http://www.w3.org/2000/svg">
<path fill-rule="evenodd" clip-rule="evenodd" d="M4.33366 1.16659C4.49104 0.956747 4.73803 0.833252 5.00033 0.833252H15.0003C15.2626 0.833252 15.5096 0.956747 15.667 1.16659L18.167 4.49992C18.2752 4.64417 18.3337 4.81961 18.3337 4.99992V16.6666C18.3337 17.3296 18.0703 17.9655 17.6014 18.4344C17.1326 18.9032 16.4967 19.1666 15.8337 19.1666H4.16699C3.50395 19.1666 2.86807 18.9032 2.39923 18.4344C1.93038 17.9655 1.66699 17.3296 1.66699 16.6666V4.99992C1.66699 4.81961 1.72547 4.64417 1.83366 4.49992L4.33366 1.16659ZM5.41699 2.49992L3.33366 5.2777V16.6666C3.33366 16.8876 3.42146 17.0996 3.57774 17.2558C3.73402 17.4121 3.94598 17.4999 4.16699 17.4999H15.8337C16.0547 17.4999 16.2666 17.4121 16.4229 17.2558C16.5792 17.0996 16.667 16.8876 16.667 16.6666V5.2777L14.5837 2.49992H5.41699Z" fill="#E8E8E8"/>
<path fill-rule="evenodd" clip-rule="evenodd" d="M1.66699 5.00008C1.66699 4.53984 2.04009 4.16675 2.50033 4.16675H17.5003C17.9606 4.16675 18.3337 4.53984 18.3337 5.00008C18.3337 5.46032 17.9606 5.83342 17.5003 5.83342H2.50033C2.04009 5.83342 1.66699 5.46032 1.66699 5.00008Z" fill="#E8E8E8"/>
<path fill-rule="evenodd" clip-rule="evenodd" d="M6.66634 7.5C7.12658 7.5 7.49967 7.8731 7.49967 8.33333C7.49967 8.99637 7.76307 9.63226 8.23191 10.1011C8.70075 10.5699 9.33663 10.8333 9.99967 10.8333C10.6627 10.8333 11.2986 10.5699 11.7674 10.1011C12.2363 9.63226 12.4997 8.99637 12.4997 8.33333C12.4997 7.8731 12.8728 7.5 13.333 7.5C13.7932 7.5 14.1663 7.8731 14.1663 8.33333C14.1663 9.4384 13.7274 10.4982 12.946 11.2796C12.1646 12.061 11.1047 12.5 9.99967 12.5C8.89461 12.5 7.8348 12.061 7.0534 11.2796C6.27199 10.4982 5.83301 9.4384 5.83301 8.33333C5.83301 7.8731 6.2061 7.5 6.66634 7.5Z" fill="#E8E8E8"/>
</svg>
