<svg width="48" height="48" viewBox="0 0 48 48" fill="none" xmlns="http://www.w3.org/2000/svg">
<rect width="48" height="48" rx="12" fill="#202020"/>
<path fill-rule="evenodd" clip-rule="evenodd" d="M29.5886 18.4108C29.914 18.7363 29.914 19.2639 29.5886 19.5893L19.5886 29.5893C19.2632 29.9148 18.7355 29.9148 18.4101 29.5893C18.0847 29.2639 18.0847 28.7363 18.4101 28.4108L28.4101 18.4108C28.7355 18.0854 29.2632 18.0854 29.5886 18.4108Z" fill="#E8E8E8"/>
<path fill-rule="evenodd" clip-rule="evenodd" d="M18.4101 18.4108C18.7355 18.0854 19.2632 18.0854 19.5886 18.4108L29.5886 28.4108C29.914 28.7363 29.914 29.2639 29.5886 29.5893C29.2632 29.9148 28.7355 29.9148 28.4101 29.5893L18.4101 19.5893C18.0847 19.2639 18.0847 18.7363 18.4101 18.4108Z" fill="#E8E8E8"/>
</svg>
