<svg width="16" height="16" viewBox="0 0 16 16" fill="none" xmlns="http://www.w3.org/2000/svg">
<path fill-rule="evenodd" clip-rule="evenodd" d="M8.05421 1.67261C8.18323 1.90153 8.16574 2.18489 8.00954 2.3962C7.44006 3.16664 7.16603 4.11589 7.23727 5.0713C7.30852 6.0267 7.72032 6.92481 8.39777 7.60226C9.07522 8.27971 9.97332 8.69151 10.9287 8.76276C11.8841 8.834 12.8334 8.55997 13.6038 7.99049C13.8151 7.83429 14.0985 7.8168 14.3274 7.94582C14.5563 8.07483 14.6881 8.32628 14.6639 8.58794C14.5474 9.84884 14.0742 11.0505 13.2997 12.0522C12.5251 13.054 11.4813 13.8145 10.2904 14.2446C9.09943 14.6748 7.81059 14.7569 6.57468 14.4813C5.33876 14.2058 4.20689 13.5839 3.31151 12.6885C2.41613 11.7931 1.79426 10.6613 1.51868 9.42535C1.2431 8.18944 1.32521 6.9006 1.75539 5.70965C2.18557 4.51869 2.94603 3.47488 3.9478 2.70035C4.94956 1.92583 6.15119 1.45261 7.41208 1.33609C7.67374 1.31191 7.9252 1.44369 8.05421 1.67261ZM6.21102 2.9593C5.69261 3.14687 5.20383 3.41461 4.76335 3.75518C3.96194 4.3748 3.35357 5.20985 3.00942 6.16261C2.66528 7.11537 2.59959 8.14644 2.82006 9.13518C3.04052 10.1239 3.53801 11.0294 4.25432 11.7457C4.97063 12.462 5.87612 12.9595 6.86485 13.18C7.85358 13.4004 8.88465 13.3348 9.83742 12.9906C10.7902 12.6465 11.6252 12.0381 12.2449 11.2367C12.5854 10.7962 12.8532 10.3074 13.0407 9.78901C12.3386 10.043 11.5856 10.1488 10.8296 10.0924C9.5557 9.9974 8.35823 9.44834 7.45496 8.54507C6.55169 7.6418 6.00263 6.44433 5.90763 5.17045C5.85126 4.41447 5.95702 3.66138 6.21102 2.9593Z" fill="#E8E8E8"/>
</svg>
