<svg width="16" height="16" viewBox="0 0 16 16" fill="none" xmlns="http://www.w3.org/2000/svg">
<g clip-path="url(#clip0_2785_2691)">
<path fill-rule="evenodd" clip-rule="evenodd" d="M8 5.33333C6.52724 5.33333 5.33333 6.52724 5.33333 8C5.33333 9.47276 6.52724 10.6667 8 10.6667C9.47276 10.6667 10.6667 9.47276 10.6667 8C10.6667 6.52724 9.47276 5.33333 8 5.33333ZM4 8C4 5.79086 5.79086 4 8 4C10.2091 4 12 5.79086 12 8C12 10.2091 10.2091 12 8 12C5.79086 12 4 10.2091 4 8Z" fill="#CECECE"/>
<path fill-rule="evenodd" clip-rule="evenodd" d="M8.00016 0C8.36835 0 8.66683 0.298477 8.66683 0.666667V2C8.66683 2.36819 8.36835 2.66667 8.00016 2.66667C7.63197 2.66667 7.3335 2.36819 7.3335 2V0.666667C7.3335 0.298477 7.63197 0 8.00016 0Z" fill="#CECECE"/>
<path fill-rule="evenodd" clip-rule="evenodd" d="M8.00016 13.3333C8.36835 13.3333 8.66683 13.6317 8.66683 13.9999V15.3333C8.66683 15.7014 8.36835 15.9999 8.00016 15.9999C7.63197 15.9999 7.3335 15.7014 7.3335 15.3333V13.9999C7.3335 13.6317 7.63197 13.3333 8.00016 13.3333Z" fill="#CECECE"/>
<path fill-rule="evenodd" clip-rule="evenodd" d="M2.34175 2.34199C2.6021 2.08164 3.02421 2.08164 3.28456 2.34199L4.23122 3.28866C4.49157 3.54901 4.49157 3.97112 4.23122 4.23147C3.97087 4.49182 3.54876 4.49182 3.28841 4.23147L2.34175 3.2848C2.0814 3.02445 2.0814 2.60234 2.34175 2.34199Z" fill="#CECECE"/>
<path fill-rule="evenodd" clip-rule="evenodd" d="M11.769 11.7685C12.0293 11.5082 12.4515 11.5082 12.7118 11.7685L13.6585 12.7152C13.9188 12.9755 13.9188 13.3976 13.6585 13.658C13.3981 13.9183 12.976 13.9183 12.7157 13.658L11.769 12.7113C11.5086 12.451 11.5086 12.0289 11.769 11.7685Z" fill="#CECECE"/>
<path fill-rule="evenodd" clip-rule="evenodd" d="M0 7.99992C0 7.63173 0.298477 7.33325 0.666667 7.33325H2C2.36819 7.33325 2.66667 7.63173 2.66667 7.99992C2.66667 8.36811 2.36819 8.66659 2 8.66659H0.666667C0.298477 8.66659 0 8.36811 0 7.99992Z" fill="#CECECE"/>
<path fill-rule="evenodd" clip-rule="evenodd" d="M13.3335 7.99992C13.3335 7.63173 13.632 7.33325 14.0002 7.33325H15.3335C15.7017 7.33325 16.0002 7.63173 16.0002 7.99992C16.0002 8.36811 15.7017 8.66659 15.3335 8.66659H14.0002C13.632 8.66659 13.3335 8.36811 13.3335 7.99992Z" fill="#CECECE"/>
<path fill-rule="evenodd" clip-rule="evenodd" d="M4.23122 11.7685C4.49157 12.0289 4.49157 12.451 4.23122 12.7113L3.28456 13.658C3.02421 13.9183 2.6021 13.9183 2.34175 13.658C2.0814 13.3976 2.0814 12.9755 2.34175 12.7152L3.28841 11.7685C3.54876 11.5082 3.97087 11.5082 4.23122 11.7685Z" fill="#CECECE"/>
<path fill-rule="evenodd" clip-rule="evenodd" d="M13.6585 2.34199C13.9188 2.60234 13.9188 3.02445 13.6585 3.2848L12.7118 4.23147C12.4515 4.49182 12.0293 4.49182 11.769 4.23147C11.5086 3.97112 11.5086 3.54901 11.769 3.28866L12.7157 2.34199C12.976 2.08164 13.3981 2.08164 13.6585 2.34199Z" fill="#CECECE"/>
</g>
<defs>
<clipPath id="clip0_2785_2691">
<rect width="16" height="16" fill="white"/>
</clipPath>
</defs>
</svg>
