<svg width="24" height="24" viewBox="0 0 24 24" fill="none" xmlns="http://www.w3.org/2000/svg">
<rect width="24" height="24" rx="8" fill="#3C3C3C"/>
<path fill-rule="evenodd" clip-rule="evenodd" d="M7.33333 12.5833C7.6555 12.5833 7.91667 12.8445 7.91667 13.1666V17.25C7.91667 17.5721 7.6555 17.8333 7.33333 17.8333C7.01117 17.8333 6.75 17.5721 6.75 17.25V13.1666C6.75 12.8445 7.01117 12.5833 7.33333 12.5833Z" fill="#E8E8E8"/>
<path fill-rule="evenodd" clip-rule="evenodd" d="M7.33333 6.16663C7.6555 6.16663 7.91667 6.42779 7.91667 6.74996V10.8333C7.91667 11.1555 7.6555 11.4166 7.33333 11.4166C7.01117 11.4166 6.75 11.1555 6.75 10.8333V6.74996C6.75 6.42779 7.01117 6.16663 7.33333 6.16663Z" fill="#E8E8E8"/>
<path fill-rule="evenodd" clip-rule="evenodd" d="M12 11.4166C12.3222 11.4166 12.5833 11.6778 12.5833 12V17.25C12.5833 17.5721 12.3222 17.8333 12 17.8333C11.6778 17.8333 11.4167 17.5721 11.4167 17.25V12C11.4167 11.6778 11.6778 11.4166 12 11.4166Z" fill="#E8E8E8"/>
<path fill-rule="evenodd" clip-rule="evenodd" d="M12 6.16663C12.3222 6.16663 12.5833 6.42779 12.5833 6.74996V9.66663C12.5833 9.98879 12.3222 10.25 12 10.25C11.6778 10.25 11.4167 9.98879 11.4167 9.66663V6.74996C11.4167 6.42779 11.6778 6.16663 12 6.16663Z" fill="#E8E8E8"/>
<path fill-rule="evenodd" clip-rule="evenodd" d="M16.6667 13.75C16.9888 13.75 17.25 14.0111 17.25 14.3333V17.25C17.25 17.5721 16.9888 17.8333 16.6667 17.8333C16.3445 17.8333 16.0833 17.5721 16.0833 17.25V14.3333C16.0833 14.0111 16.3445 13.75 16.6667 13.75Z" fill="#E8E8E8"/>
<path fill-rule="evenodd" clip-rule="evenodd" d="M16.6667 6.16663C16.9888 6.16663 17.25 6.42779 17.25 6.74996V12C17.25 12.3221 16.9888 12.5833 16.6667 12.5833C16.3445 12.5833 16.0833 12.3221 16.0833 12V6.74996C16.0833 6.42779 16.3445 6.16663 16.6667 6.16663Z" fill="#E8E8E8"/>
<path fill-rule="evenodd" clip-rule="evenodd" d="M5 13.1666C5 12.8445 5.26117 12.5833 5.58333 12.5833H9.08333C9.4055 12.5833 9.66667 12.8445 9.66667 13.1666C9.66667 13.4888 9.4055 13.75 9.08333 13.75H5.58333C5.26117 13.75 5 13.4888 5 13.1666Z" fill="#E8E8E8"/>
<path fill-rule="evenodd" clip-rule="evenodd" d="M9.66667 9.66663C9.66667 9.34446 9.92783 9.08329 10.25 9.08329H13.75C14.0722 9.08329 14.3333 9.34446 14.3333 9.66663C14.3333 9.98879 14.0722 10.25 13.75 10.25H10.25C9.92783 10.25 9.66667 9.98879 9.66667 9.66663Z" fill="#E8E8E8"/>
<path fill-rule="evenodd" clip-rule="evenodd" d="M14.3333 14.3333C14.3333 14.0111 14.5945 13.75 14.9167 13.75H18.4167C18.7388 13.75 19 14.0111 19 14.3333C19 14.6555 18.7388 14.9166 18.4167 14.9166H14.9167C14.5945 14.9166 14.3333 14.6555 14.3333 14.3333Z" fill="#E8E8E8"/>
</svg>
