<svg width="16" height="14" viewBox="0 0 16 14" fill="none" xmlns="http://www.w3.org/2000/svg">
<path fill-rule="evenodd" clip-rule="evenodd" d="M2.66667 7.71016C3.03486 7.71016 3.33333 8.00864 3.33333 8.37683V13.0435C3.33333 13.4117 3.03486 13.7102 2.66667 13.7102C2.29848 13.7102 2 13.4117 2 13.0435V8.37683C2 8.00864 2.29848 7.71016 2.66667 7.71016Z" fill="#E8E8E8"/>
<path fill-rule="evenodd" clip-rule="evenodd" d="M2.66667 0.376831C3.03486 0.376831 3.33333 0.675308 3.33333 1.0435V5.71016C3.33333 6.07835 3.03486 6.37683 2.66667 6.37683C2.29848 6.37683 2 6.07835 2 5.71016V1.0435C2 0.675308 2.29848 0.376831 2.66667 0.376831Z" fill="#E8E8E8"/>
<path fill-rule="evenodd" clip-rule="evenodd" d="M8 6.37683C8.36819 6.37683 8.66667 6.67531 8.66667 7.0435V13.0435C8.66667 13.4117 8.36819 13.7102 8 13.7102C7.63181 13.7102 7.33333 13.4117 7.33333 13.0435V7.0435C7.33333 6.67531 7.63181 6.37683 8 6.37683Z" fill="#E8E8E8"/>
<path fill-rule="evenodd" clip-rule="evenodd" d="M8 0.376831C8.36819 0.376831 8.66667 0.675308 8.66667 1.0435V4.37683C8.66667 4.74502 8.36819 5.0435 8 5.0435C7.63181 5.0435 7.33333 4.74502 7.33333 4.37683V1.0435C7.33333 0.675308 7.63181 0.376831 8 0.376831Z" fill="#E8E8E8"/>
<path fill-rule="evenodd" clip-rule="evenodd" d="M13.3333 9.0435C13.7015 9.0435 14 9.34198 14 9.71017V13.0435C14 13.4117 13.7015 13.7102 13.3333 13.7102C12.9651 13.7102 12.6667 13.4117 12.6667 13.0435V9.71017C12.6667 9.34198 12.9651 9.0435 13.3333 9.0435Z" fill="#E8E8E8"/>
<path fill-rule="evenodd" clip-rule="evenodd" d="M13.3333 0.376831C13.7015 0.376831 14 0.675308 14 1.0435V7.0435C14 7.41169 13.7015 7.71016 13.3333 7.71016C12.9651 7.71016 12.6667 7.41169 12.6667 7.0435V1.0435C12.6667 0.675308 12.9651 0.376831 13.3333 0.376831Z" fill="#E8E8E8"/>
<path fill-rule="evenodd" clip-rule="evenodd" d="M0 8.37683C0 8.00864 0.298477 7.71016 0.666667 7.71016H4.66667C5.03486 7.71016 5.33333 8.00864 5.33333 8.37683C5.33333 8.74502 5.03486 9.0435 4.66667 9.0435H0.666667C0.298477 9.0435 0 8.74502 0 8.37683Z" fill="#E8E8E8"/>
<path fill-rule="evenodd" clip-rule="evenodd" d="M5.33333 4.37683C5.33333 4.00864 5.63181 3.71016 6 3.71016H10C10.3682 3.71016 10.6667 4.00864 10.6667 4.37683C10.6667 4.74502 10.3682 5.0435 10 5.0435H6C5.63181 5.0435 5.33333 4.74502 5.33333 4.37683Z" fill="#E8E8E8"/>
<path fill-rule="evenodd" clip-rule="evenodd" d="M10.6667 9.71017C10.6667 9.34198 10.9651 9.0435 11.3333 9.0435H15.3333C15.7015 9.0435 16 9.34198 16 9.71017C16 10.0784 15.7015 10.3768 15.3333 10.3768H11.3333C10.9651 10.3768 10.6667 10.0784 10.6667 9.71017Z" fill="#E8E8E8"/>
</svg>
