<svg width="22" height="22" viewBox="0 0 22 22" fill="none" xmlns="http://www.w3.org/2000/svg">
<path d="M11.0007 0.818115C8.23559 0.818115 7.88857 0.830206 6.80254 0.879631C5.71864 0.929267 4.97878 1.10087 4.3314 1.35266C3.66176 1.61272 3.09371 1.9606 2.52779 2.52675C1.96145 3.09269 1.61358 3.66075 1.35268 4.33021C1.10026 4.97781 0.928447 5.7179 0.87966 6.80142C0.831086 7.88748 0.818359 8.23472 0.818359 10.9999C0.818359 13.7651 0.830662 14.1111 0.879873 15.1972C0.92972 16.2811 1.10132 17.021 1.35289 17.6684C1.61315 18.3381 1.96102 18.9061 2.52716 19.4721C3.09287 20.0384 3.66091 20.3871 4.33013 20.6472C4.97793 20.899 5.718 21.0706 6.80169 21.1202C7.88772 21.1697 8.23453 21.1817 10.9994 21.1817C13.7648 21.1817 14.1107 21.1697 15.1968 21.1202C16.2807 21.0706 17.0214 20.899 17.6692 20.6472C18.3386 20.3871 18.9058 20.0384 19.4715 19.4721C20.0379 18.9061 20.3857 18.3381 20.6466 17.6686C20.8969 17.021 21.0687 16.2809 21.1197 15.1974C21.1684 14.1113 21.1812 13.7651 21.1812 10.9999C21.1812 8.23472 21.1684 7.88769 21.1197 6.80163C21.0687 5.71769 20.8969 4.97781 20.6466 4.33042C20.3857 3.66075 20.0379 3.09269 19.4715 2.52675C18.9052 1.96039 18.3388 1.61251 17.6685 1.35266C17.0195 1.10087 16.2792 0.929267 15.1953 0.879631C14.1093 0.830206 13.7635 0.818115 10.9975 0.818115H11.0007ZM10.0874 2.65296C10.3584 2.65254 10.6609 2.65296 11.0007 2.65296C13.7192 2.65296 14.0414 2.66272 15.1149 2.71151C16.1076 2.7569 16.6464 2.92278 17.0053 3.06215C17.4804 3.24669 17.8191 3.4673 18.1753 3.82366C18.5316 4.18002 18.7522 4.51942 18.9372 4.99457C19.0766 5.35305 19.2427 5.89184 19.2878 6.88457C19.3366 7.9579 19.3472 8.28033 19.3472 10.9976C19.3472 13.7149 19.3366 14.0373 19.2878 15.1106C19.2424 16.1034 19.0766 16.6421 18.9372 17.0006C18.7527 17.4758 18.5316 17.8141 18.1753 18.1703C17.8189 18.5266 17.4806 18.7472 17.0053 18.9318C16.6468 19.0718 16.1076 19.2372 15.1149 19.2826C14.0416 19.3314 13.7192 19.342 11.0007 19.342C8.28204 19.342 7.95984 19.3314 6.88654 19.2826C5.89384 19.2368 5.35507 19.0709 4.99596 18.9316C4.52082 18.747 4.18144 18.5264 3.82509 18.1701C3.46873 17.8137 3.24813 17.4751 3.06317 16.9998C2.92381 16.6413 2.75773 16.1025 2.71254 15.1098C2.66376 14.0364 2.654 13.714 2.654 10.9951C2.654 8.27608 2.66376 7.95536 2.71254 6.88202C2.75794 5.8893 2.92381 5.35051 3.06317 4.9916C3.24771 4.51645 3.46873 4.17705 3.82509 3.82069C4.18144 3.46433 4.52082 3.24372 4.99596 3.05875C5.35486 2.91875 5.89384 2.7533 6.88654 2.70769C7.82578 2.66527 8.18977 2.65254 10.0874 2.65042V2.65296ZM16.4355 4.34357C15.761 4.34357 15.2137 4.89021 15.2137 5.56496C15.2137 6.23951 15.761 6.78678 16.4355 6.78678C17.11 6.78678 17.6573 6.23951 17.6573 5.56496C17.6573 4.89042 17.11 4.34315 16.4355 4.34315V4.34357ZM11.0007 5.77114C8.1132 5.77114 5.77209 8.11233 5.77209 10.9999C5.77209 13.8875 8.1132 16.2277 11.0007 16.2277C13.8882 16.2277 16.2285 13.8875 16.2285 10.9999C16.2285 8.11233 13.888 5.77114 11.0005 5.77114H11.0007ZM11.0007 7.60599C12.875 7.60599 14.3946 9.12542 14.3946 10.9999C14.3946 12.8742 12.875 14.3939 11.0007 14.3939C9.12626 14.3939 7.60688 12.8742 7.60688 10.9999C7.60688 9.12542 9.12626 7.60599 11.0007 7.60599Z" fill="#E8E8E8"/>
</svg>
