<svg width="97" height="24" viewBox="0 0 97 24" fill="none" xmlns="http://www.w3.org/2000/svg">
<path d="M49.235 0.601109C48.9842 0.429875 48.6825 0.349609 48.3794 0.349609H43.5003C42.815 0.349609 42.2209 0.824394 42.0671 1.49425L41.1922 5.31394C41.0142 6.09081 40.7193 7.51274 40.4215 9.07573C40.3997 9.18908 40.2431 9.20173 40.2043 9.09324L37.4131 1.32448C37.2031 0.73975 36.6497 0.349609 36.0299 0.349609H30.6231C29.9378 0.349609 29.3437 0.824394 29.1899 1.49425L24.5286 21.8453C24.3593 22.5838 24.7721 23.385 25.6242 23.6224C25.6989 23.6433 25.777 23.6501 25.8546 23.6501C26.4526 23.6501 29.2103 23.6501 30.8166 23.6501C31.5019 23.6501 32.0956 23.1753 32.2488 22.5054L33.2237 18.2484C33.4434 17.2901 33.6975 16.0384 33.9434 14.7265C33.9647 14.6121 34.1233 14.6005 34.1616 14.7104L36.8971 22.6562C37.1017 23.2507 37.66 23.6496 38.2866 23.6496H43.7516C44.4369 23.6496 45.031 23.1748 45.1847 22.505L49.8461 2.15389C49.979 1.57354 49.7525 0.953793 49.2354 0.600136L49.235 0.601109Z" fill="#DAFF00"/>
<path d="M95.1284 3.39744C93.364 1.1748 90.5738 0 87.0595 0C83.5451 0 80.4256 1.11643 77.8158 3.22815C76.0398 4.66515 74.643 6.4777 73.6856 8.56608C73.6288 8.68964 73.4431 8.62445 73.4732 8.49214L74.9248 2.15502C75.0576 1.57467 74.8311 0.954921 74.3141 0.601265C74.0634 0.430031 73.7617 0.349765 73.4586 0.349765H67.998C67.5043 0.349765 67.0435 0.598346 66.7714 1.01135L61.1794 9.49473C61.1236 9.57937 60.9941 9.55359 60.9742 9.45435L59.3815 1.53284C59.2432 0.844495 58.6404 0.349765 57.9401 0.349765H52.3301C51.6448 0.349765 51.0506 0.82455 50.8969 1.49441L46.2355 21.8455C46.0949 22.4599 46.3568 23.1176 46.9393 23.4581C47.1653 23.5899 47.4253 23.6502 47.6867 23.6502C48.4452 23.6502 50.8135 23.6502 52.2617 23.6502C52.947 23.6502 53.5406 23.1754 53.6939 22.5056L54.8293 17.5491C54.8909 17.2805 54.9578 16.9804 55.0296 16.6437C55.0553 16.5236 55.227 16.5236 55.2512 16.6437L55.7202 18.969C55.8589 19.6569 56.4618 20.1516 57.1611 20.1516H60.9985C61.4946 20.1516 61.9573 19.9006 62.2289 19.4842L63.6034 17.3773C63.6728 17.2713 63.8367 17.3408 63.8086 17.4644C63.502 18.8022 62.8051 21.8455 62.8051 21.8455C62.6644 22.4599 62.9263 23.1176 63.5088 23.4581C63.7348 23.5899 63.9943 23.6502 64.2557 23.6502C65.0143 23.6502 67.383 23.6502 68.8312 23.6502C69.5165 23.6502 70.1102 23.1754 70.2634 22.5056L72.0482 14.7135C72.0783 14.5816 72.2708 14.604 72.2708 14.7393C72.2674 17.0096 72.9028 19.0264 74.1444 20.5904C75.9156 22.8213 78.7141 24.0005 82.2376 24.0005C85.7611 24.0005 88.8637 22.8797 91.4715 20.7592C94.0687 18.6475 95.8535 15.7331 96.6329 12.3303C97.4394 8.80833 96.905 5.63564 95.1279 3.39744H95.1284ZM80.4421 12.3303C81.1958 9.04038 83.4365 6.91455 86.1511 6.91455C87.1914 6.91455 87.9635 7.22247 88.4451 7.82909C89.0901 8.64196 89.2356 10.006 88.8549 11.6697C88.1168 14.8915 85.8256 17.0563 83.1528 17.0563C82.1028 17.0563 81.3268 16.7493 80.8456 16.1442C80.2064 15.3391 80.0633 13.9848 80.4421 12.3303Z" fill="#DAFF00"/>
<path d="M26.8088 7.8732C26.9087 7.42371 26.5697 6.99417 26.1119 6.96158H20.1333C19.8083 6.93823 19.497 7.12114 19.3752 7.42469C19.3466 7.49571 19.3233 7.56965 19.3059 7.64651L17.1714 16.9647C17.1525 17.0474 17.055 17.0785 16.9885 17.026C16.7315 16.8212 16.4109 16.7063 16.0763 16.7063H9.08595L12.4189 2.15486C12.5518 1.57452 12.3253 0.954766 11.8083 0.601109C11.5575 0.429875 11.2558 0.349609 10.9527 0.349609H6.13181C5.44651 0.349609 4.85238 0.824394 4.69864 1.49425L0.0373014 21.8453C-0.0955886 22.4257 0.130906 23.0454 0.647916 23.3991C0.898661 23.5703 1.20033 23.6506 1.50346 23.6506H15.1611C15.583 23.6506 15.9705 23.4701 16.2416 23.1753C16.2853 23.1276 16.3609 23.1266 16.4046 23.1743C16.4749 23.2512 16.5549 23.3222 16.6432 23.385C16.8974 23.565 17.2068 23.6506 17.5186 23.6506H22.0791C22.7644 23.6506 23.3585 23.1758 23.5123 22.5059L26.8069 7.88245C26.8074 7.87953 26.8083 7.87661 26.8088 7.87369V7.8732Z" fill="#DAFF00"/>
<path d="M20.2555 6.11854L26.5978 6.11708C26.819 6.1307 27.0406 6.0519 27.1905 5.88796C27.3248 5.74105 27.4238 5.56689 27.4742 5.37377L28.2895 1.92234C28.3899 1.54095 28.2856 1.14011 28.0067 0.834124C27.7279 0.52814 27.3045 0.349609 26.8568 0.349609H22.0024C21.3171 0.349609 20.723 0.763101 20.5693 1.34685L19.5609 5.18308C19.56 5.186 19.5595 5.1894 19.5585 5.19232C19.4431 5.64619 19.7889 6.08935 20.2555 6.11854Z" fill="#DAFF00"/>
</svg>
