<svg width="20" height="17" viewBox="0 0 20 17" fill="none" xmlns="http://www.w3.org/2000/svg">
<path d="M18.9282 5.31223C18.9987 4.99487 18.7594 4.69159 18.4361 4.66858H14.215C13.9855 4.65209 13.7657 4.78123 13.6797 4.99555C13.6595 5.0457 13.6431 5.09791 13.6308 5.15217L12.1237 11.7312C12.1104 11.7896 12.0416 11.8116 11.9946 11.7745C11.8132 11.6299 11.5868 11.5488 11.3505 11.5488H6.41507L8.76826 1.27483C8.86208 0.865081 8.70217 0.427511 8.33714 0.177814C8.1601 0.0569154 7.94711 0.000244141 7.73309 0.000244141H4.32932C3.84547 0.000244141 3.42599 0.335463 3.31744 0.80841L0.0263364 15.1771C-0.0674897 15.5869 0.0924255 16.0245 0.457457 16.2742C0.634494 16.3951 0.847486 16.4517 1.06151 16.4517H10.7044C11.0023 16.4517 11.2759 16.3243 11.4673 16.1162C11.4981 16.0825 11.5515 16.0818 11.5824 16.1155C11.632 16.1697 11.6885 16.2199 11.7508 16.2642C11.9303 16.3913 12.1487 16.4517 12.3689 16.4517H15.5888C16.0727 16.4517 16.4921 16.1165 16.6007 15.6436L18.9268 5.31875C18.9272 5.31669 18.9278 5.31463 18.9282 5.31257V5.31223Z" fill="#DAFF00"/>
<path d="M14.3008 4.07336L18.7788 4.07233C18.935 4.08195 19.0915 4.0263 19.1973 3.91056C19.2921 3.80683 19.362 3.68387 19.3976 3.54752L19.9732 1.11066C20.0441 0.841382 19.9705 0.55837 19.7736 0.342332C19.5767 0.126295 19.2777 0.000244141 18.9617 0.000244141H15.5343C15.0504 0.000244141 14.6309 0.292187 14.5224 0.704341L13.8105 3.41288C13.8098 3.41494 13.8095 3.41735 13.8088 3.41941C13.7273 3.73986 13.9714 4.05275 14.3008 4.07336Z" fill="#DAFF00"/>
</svg>
