<svg width="16" height="16" viewBox="0 0 16 16" fill="none" xmlns="http://www.w3.org/2000/svg">
<path fill-rule="evenodd" clip-rule="evenodd" d="M8.05372 1.67267C8.18274 1.9016 8.16525 2.18495 8.00905 2.39626C7.43957 3.1667 7.16554 4.11595 7.23678 5.07136C7.30803 6.02676 7.71983 6.92487 8.39728 7.60232C9.07473 8.27977 9.97284 8.69157 10.9282 8.76282C11.8837 8.83406 12.8329 8.56003 13.6033 7.99055C13.8147 7.83435 14.098 7.81686 14.3269 7.94588C14.5558 8.07489 14.6876 8.32635 14.6634 8.58801C14.5469 9.8489 14.0737 11.0505 13.2992 12.0523C12.5247 13.0541 11.4808 13.8145 10.2899 14.2447C9.09894 14.6749 7.8101 14.757 6.57419 14.4814C5.33827 14.2058 4.20641 13.584 3.31102 12.6886C2.41564 11.7932 1.79377 10.6613 1.51819 9.42541C1.24261 8.1895 1.32472 6.90066 1.7549 5.70971C2.18508 4.51875 2.94554 3.47494 3.94731 2.70041C4.94907 1.92589 6.1507 1.45268 7.4116 1.33615C7.67325 1.31197 7.92471 1.44375 8.05372 1.67267ZM6.21054 2.95936C5.69213 3.14693 5.20334 3.41467 4.76286 3.75524C3.96145 4.37486 3.35308 5.20991 3.00893 6.16267C2.66479 7.11543 2.5991 8.1465 2.81957 9.13524C3.04003 10.124 3.53752 11.0295 4.25383 11.7458C4.97014 12.4621 5.87563 12.9596 6.86436 13.18C7.8531 13.4005 8.88417 13.3348 9.83693 12.9907C10.7897 12.6465 11.6247 12.0382 12.2444 11.2367C12.5849 10.7963 12.8527 10.3075 13.0402 9.78907C12.3382 10.0431 11.5851 10.1488 10.8291 10.0925C9.55521 9.99746 8.35774 9.4484 7.45447 8.54513C6.5512 7.64186 6.00214 6.44439 5.90714 5.17051C5.85077 4.41453 5.95653 3.66145 6.21054 2.95936Z" fill="#6A6A6A"/>
</svg>
