<svg width="263" height="145" viewBox="0 0 263 145" fill="none" xmlns="http://www.w3.org/2000/svg">
<g opacity="0.3">
<rect x="37" y="80.043" width="189" height="64" rx="12" fill="#202020"/>
<rect x="49" y="92.043" width="40" height="40" rx="8" fill="#747474"/>
<rect x="101" y="101.043" width="113" height="9" rx="4.5" fill="#747474"/>
<rect x="101" y="114.043" width="113" height="9" rx="4.5" fill="#747474"/>
</g>
<g opacity="0.3">
<rect x="37" y="0.0429688" width="189" height="64" rx="12" fill="#202020"/>
<rect x="49" y="12.043" width="40" height="40" rx="8" fill="#747474"/>
<rect x="101" y="21.043" width="113" height="9" rx="4.5" fill="#747474"/>
<rect x="101" y="34.043" width="113" height="9" rx="4.5" fill="#747474"/>
</g>
<g filter="url(#filter0_d_3235_13876)">
<rect x="24" y="36.043" width="215" height="72.8042" rx="13.6508" fill="#202020" shape-rendering="crispEdges"/>
<rect x="37.6504" y="49.6937" width="45.5026" height="45.5026" rx="9.10053" fill="#747474"/>
<rect x="96.8047" y="59.9318" width="128.545" height="10.2381" rx="5.11905" fill="#747474"/>
<rect x="96.8047" y="74.7202" width="128.545" height="10.2381" rx="5.11905" fill="#747474"/>
</g>
<defs>
<filter id="filter0_d_3235_13876" x="0" y="24.043" width="263" height="120.804" filterUnits="userSpaceOnUse" color-interpolation-filters="sRGB">
<feFlood flood-opacity="0" result="BackgroundImageFix"/>
<feColorMatrix in="SourceAlpha" type="matrix" values="0 0 0 0 0 0 0 0 0 0 0 0 0 0 0 0 0 0 127 0" result="hardAlpha"/>
<feOffset dy="12"/>
<feGaussianBlur stdDeviation="12"/>
<feComposite in2="hardAlpha" operator="out"/>
<feColorMatrix type="matrix" values="0 0 0 0 0.0901961 0 0 0 0 0.0901961 0 0 0 0 0.0901961 0 0 0 1 0"/>
<feBlend mode="normal" in2="BackgroundImageFix" result="effect1_dropShadow_3235_13876"/>
<feBlend mode="normal" in="SourceGraphic" in2="effect1_dropShadow_3235_13876" result="shape"/>
</filter>
</defs>
</svg>
