<svg width="248" height="177" viewBox="0 0 248 177" fill="none" xmlns="http://www.w3.org/2000/svg">
<g opacity="0.3">
<rect x="80" y="20" width="168" height="114" rx="12" fill="#202020"/>
<circle cx="164" cy="43" r="11" fill="#747474"/>
<rect x="107.5" y="66" width="113" height="8" rx="4" fill="#747474"/>
<rect x="139" y="78" width="50" height="8" rx="4" fill="#747474"/>
<path d="M103.283 101.453C103.513 100.986 103.628 100.753 103.785 100.678C103.921 100.613 104.079 100.613 104.215 100.678C104.372 100.753 104.487 100.986 104.717 101.453L106.904 105.883C106.972 106.021 107.006 106.09 107.056 106.144C107.1 106.191 107.153 106.229 107.211 106.257C107.278 106.287 107.354 106.299 107.506 106.321L112.397 107.036C112.912 107.111 113.17 107.149 113.289 107.274C113.392 107.384 113.441 107.534 113.422 107.684C113.399 107.856 113.212 108.037 112.839 108.4L109.301 111.846C109.191 111.954 109.136 112.008 109.1 112.071C109.069 112.128 109.049 112.19 109.041 112.255C109.032 112.327 109.045 112.403 109.071 112.555L109.906 117.422C109.994 117.935 110.038 118.192 109.955 118.344C109.883 118.477 109.755 118.57 109.607 118.597C109.437 118.629 109.206 118.508 108.745 118.265L104.372 115.966C104.236 115.894 104.168 115.858 104.096 115.844C104.033 115.832 103.967 115.832 103.904 115.844C103.832 115.858 103.764 115.894 103.628 115.966L99.2549 118.265C98.7939 118.508 98.5634 118.629 98.393 118.597C98.2447 118.57 98.1167 118.477 98.0447 118.344C97.962 118.192 98.006 117.935 98.0941 117.422L98.9289 112.555C98.9549 112.403 98.9679 112.327 98.9591 112.255C98.9513 112.19 98.9311 112.128 98.8996 112.071C98.864 112.008 98.8089 111.954 98.6986 111.846L95.1606 108.4C94.7877 108.037 94.6012 107.856 94.5785 107.684C94.5588 107.534 94.6076 107.384 94.7113 107.274C94.8304 107.149 95.088 107.111 95.603 107.036L100.494 106.321C100.646 106.299 100.722 106.287 100.789 106.257C100.847 106.229 100.9 106.191 100.944 106.144C100.994 106.09 101.028 106.021 101.096 105.883L103.283 101.453Z" fill="#747474" stroke="#747474" stroke-width="2" stroke-linecap="round" stroke-linejoin="round"/>
<path d="M133.283 101.453C133.513 100.986 133.628 100.753 133.785 100.678C133.921 100.613 134.079 100.613 134.215 100.678C134.372 100.753 134.487 100.986 134.717 101.453L136.904 105.883C136.972 106.021 137.006 106.09 137.056 106.144C137.1 106.191 137.153 106.229 137.211 106.257C137.278 106.287 137.354 106.299 137.506 106.321L142.397 107.036C142.912 107.111 143.17 107.149 143.289 107.274C143.392 107.384 143.441 107.534 143.422 107.684C143.399 107.856 143.212 108.037 142.839 108.4L139.301 111.846C139.191 111.954 139.136 112.008 139.1 112.071C139.069 112.128 139.049 112.19 139.041 112.255C139.032 112.327 139.045 112.403 139.071 112.555L139.906 117.422C139.994 117.935 140.038 118.192 139.955 118.344C139.883 118.477 139.755 118.57 139.607 118.597C139.437 118.629 139.206 118.508 138.745 118.265L134.372 115.966C134.236 115.894 134.168 115.858 134.096 115.844C134.033 115.832 133.967 115.832 133.904 115.844C133.832 115.858 133.764 115.894 133.628 115.966L129.255 118.265C128.794 118.508 128.563 118.629 128.393 118.597C128.245 118.57 128.117 118.477 128.045 118.344C127.962 118.192 128.006 117.935 128.094 117.422L128.929 112.555C128.955 112.403 128.968 112.327 128.959 112.255C128.951 112.19 128.931 112.128 128.9 112.071C128.864 112.008 128.809 111.954 128.699 111.846L125.161 108.4C124.788 108.037 124.601 107.856 124.579 107.684C124.559 107.534 124.608 107.384 124.711 107.274C124.83 107.149 125.088 107.111 125.603 107.036L130.494 106.321C130.646 106.299 130.722 106.287 130.789 106.257C130.847 106.229 130.9 106.191 130.944 106.144C130.994 106.09 131.028 106.021 131.096 105.883L133.283 101.453Z" fill="#747474" stroke="#747474" stroke-width="2" stroke-linecap="round" stroke-linejoin="round"/>
<path d="M163.283 101.453C163.513 100.986 163.628 100.753 163.785 100.678C163.921 100.613 164.079 100.613 164.215 100.678C164.372 100.753 164.487 100.986 164.717 101.453L166.904 105.883C166.972 106.021 167.006 106.09 167.056 106.144C167.1 106.191 167.153 106.229 167.211 106.257C167.278 106.287 167.354 106.299 167.506 106.321L172.397 107.036C172.912 107.111 173.17 107.149 173.289 107.274C173.392 107.384 173.441 107.534 173.422 107.684C173.399 107.856 173.212 108.037 172.839 108.4L169.301 111.846C169.191 111.954 169.136 112.008 169.1 112.071C169.069 112.128 169.049 112.19 169.041 112.255C169.032 112.327 169.045 112.403 169.071 112.555L169.906 117.422C169.994 117.935 170.038 118.192 169.955 118.344C169.883 118.477 169.755 118.57 169.607 118.597C169.437 118.629 169.206 118.508 168.745 118.265L164.372 115.966C164.236 115.894 164.168 115.858 164.096 115.844C164.033 115.832 163.967 115.832 163.904 115.844C163.832 115.858 163.764 115.894 163.628 115.966L159.255 118.265C158.794 118.508 158.563 118.629 158.393 118.597C158.245 118.57 158.117 118.477 158.045 118.344C157.962 118.192 158.006 117.935 158.094 117.422L158.929 112.555C158.955 112.403 158.968 112.327 158.959 112.255C158.951 112.19 158.931 112.128 158.9 112.071C158.864 112.008 158.809 111.954 158.699 111.846L155.161 108.4C154.788 108.037 154.601 107.856 154.579 107.684C154.559 107.534 154.608 107.384 154.711 107.274C154.83 107.149 155.088 107.111 155.603 107.036L160.494 106.321C160.646 106.299 160.722 106.287 160.789 106.257C160.847 106.229 160.9 106.191 160.944 106.144C160.994 106.09 161.028 106.021 161.096 105.883L163.283 101.453Z" fill="#747474" stroke="#747474" stroke-width="2" stroke-linecap="round" stroke-linejoin="round"/>
<path d="M193.283 101.453C193.513 100.986 193.628 100.753 193.785 100.678C193.921 100.613 194.079 100.613 194.215 100.678C194.372 100.753 194.487 100.986 194.717 101.453L196.904 105.883C196.972 106.021 197.006 106.09 197.056 106.144C197.1 106.191 197.153 106.229 197.211 106.257C197.278 106.287 197.354 106.299 197.506 106.321L202.397 107.036C202.912 107.111 203.17 107.149 203.289 107.274C203.392 107.384 203.441 107.534 203.422 107.684C203.399 107.856 203.212 108.037 202.839 108.4L199.301 111.846C199.191 111.954 199.136 112.008 199.1 112.071C199.069 112.128 199.049 112.19 199.041 112.255C199.032 112.327 199.045 112.403 199.071 112.555L199.906 117.422C199.994 117.935 200.038 118.192 199.955 118.344C199.883 118.477 199.755 118.57 199.607 118.597C199.437 118.629 199.206 118.508 198.745 118.265L194.372 115.966C194.236 115.894 194.168 115.858 194.096 115.844C194.033 115.832 193.967 115.832 193.904 115.844C193.832 115.858 193.764 115.894 193.628 115.966L189.255 118.265C188.794 118.508 188.563 118.629 188.393 118.597C188.245 118.57 188.117 118.477 188.045 118.344C187.962 118.192 188.006 117.935 188.094 117.422L188.929 112.555C188.955 112.403 188.968 112.327 188.959 112.255C188.951 112.19 188.931 112.128 188.9 112.071C188.864 112.008 188.809 111.954 188.699 111.846L185.161 108.4C184.788 108.037 184.601 107.856 184.579 107.684C184.559 107.534 184.608 107.384 184.711 107.274C184.83 107.149 185.088 107.111 185.603 107.036L190.494 106.321C190.646 106.299 190.722 106.287 190.789 106.257C190.847 106.229 190.9 106.191 190.944 106.144C190.994 106.09 191.028 106.021 191.096 105.883L193.283 101.453Z" fill="#747474" stroke="#747474" stroke-width="2" stroke-linecap="round" stroke-linejoin="round"/>
<path d="M223.283 101.453C223.513 100.986 223.628 100.753 223.785 100.678C223.921 100.613 224.079 100.613 224.215 100.678C224.372 100.753 224.487 100.986 224.717 101.453L226.904 105.883C226.972 106.021 227.006 106.09 227.056 106.144C227.1 106.191 227.153 106.229 227.211 106.257C227.278 106.287 227.354 106.299 227.506 106.321L232.397 107.036C232.912 107.111 233.17 107.149 233.289 107.274C233.392 107.384 233.441 107.534 233.422 107.684C233.399 107.856 233.212 108.037 232.839 108.4L229.301 111.846C229.191 111.954 229.136 112.008 229.1 112.071C229.069 112.128 229.049 112.19 229.041 112.255C229.032 112.327 229.045 112.403 229.071 112.555L229.906 117.422C229.994 117.935 230.038 118.192 229.955 118.344C229.883 118.477 229.755 118.57 229.607 118.597C229.437 118.629 229.206 118.508 228.745 118.265L224.372 115.966C224.236 115.894 224.168 115.858 224.096 115.844C224.033 115.832 223.967 115.832 223.904 115.844C223.832 115.858 223.764 115.894 223.628 115.966L219.255 118.265C218.794 118.508 218.563 118.629 218.393 118.597C218.245 118.57 218.117 118.477 218.045 118.344C217.962 118.192 218.006 117.935 218.094 117.422L218.929 112.555C218.955 112.403 218.968 112.327 218.959 112.255C218.951 112.19 218.931 112.128 218.9 112.071C218.864 112.008 218.809 111.954 218.699 111.846L215.161 108.4C214.788 108.037 214.601 107.856 214.579 107.684C214.559 107.534 214.608 107.384 214.711 107.274C214.83 107.149 215.088 107.111 215.603 107.036L220.494 106.321C220.646 106.299 220.722 106.287 220.789 106.257C220.847 106.229 220.9 106.191 220.944 106.144C220.994 106.09 221.028 106.021 221.096 105.883L223.283 101.453Z" fill="#747474" stroke="#747474" stroke-width="2" stroke-linecap="round" stroke-linejoin="round"/>
</g>
<g opacity="0.3">
<rect y="20" width="168" height="114" rx="12" fill="#202020"/>
<circle cx="84" cy="43" r="11" fill="#747474"/>
<rect x="27.5" y="66" width="113" height="8" rx="4" fill="#747474"/>
<rect x="59" y="78" width="50" height="8" rx="4" fill="#747474"/>
<path d="M23.2827 101.453C23.5131 100.986 23.6284 100.753 23.7848 100.678C23.9209 100.613 24.0791 100.613 24.2152 100.678C24.3717 100.753 24.4869 100.986 24.7174 101.453L26.9041 105.883C26.9721 106.021 27.0061 106.09 27.0558 106.144C27.0999 106.191 27.1527 106.229 27.2113 106.257C27.2776 106.287 27.3536 106.299 27.5057 106.321L32.397 107.036C32.9121 107.111 33.1696 107.149 33.2888 107.274C33.3925 107.384 33.4412 107.534 33.4215 107.684C33.3988 107.856 33.2124 108.037 32.8395 108.4L29.3014 111.846C29.1912 111.954 29.136 112.008 29.1004 112.071C29.0689 112.128 29.0487 112.19 29.0409 112.255C29.0321 112.327 29.0451 112.403 29.0711 112.555L29.906 117.422C29.994 117.935 30.038 118.192 29.9553 118.344C29.8833 118.477 29.7554 118.57 29.6071 118.597C29.4366 118.629 29.2061 118.508 28.7451 118.265L24.3724 115.966C24.2361 115.894 24.168 115.858 24.0962 115.844C24.0327 115.832 23.9673 115.832 23.9038 115.844C23.832 115.858 23.7639 115.894 23.6277 115.966L19.2549 118.265C18.7939 118.508 18.5634 118.629 18.393 118.597C18.2447 118.57 18.1167 118.477 18.0447 118.344C17.962 118.192 18.006 117.935 18.0941 117.422L18.9289 112.555C18.9549 112.403 18.9679 112.327 18.9591 112.255C18.9513 112.19 18.9311 112.128 18.8996 112.071C18.864 112.008 18.8089 111.954 18.6986 111.846L15.1606 108.4C14.7877 108.037 14.6012 107.856 14.5785 107.684C14.5588 107.534 14.6076 107.384 14.7113 107.274C14.8304 107.149 15.088 107.111 15.603 107.036L20.4943 106.321C20.6464 106.299 20.7225 106.287 20.7887 106.257C20.8474 106.229 20.9002 106.191 20.9442 106.144C20.9939 106.09 21.0279 106.021 21.096 105.883L23.2827 101.453Z" fill="#747474" stroke="#747474" stroke-width="2" stroke-linecap="round" stroke-linejoin="round"/>
<path d="M53.2827 101.453C53.5131 100.986 53.6284 100.753 53.7848 100.678C53.9209 100.613 54.0791 100.613 54.2152 100.678C54.3717 100.753 54.4869 100.986 54.7174 101.453L56.9041 105.883C56.9721 106.021 57.0061 106.09 57.0558 106.144C57.0999 106.191 57.1527 106.229 57.2113 106.257C57.2776 106.287 57.3536 106.299 57.5057 106.321L62.397 107.036C62.9121 107.111 63.1696 107.149 63.2888 107.274C63.3925 107.384 63.4412 107.534 63.4215 107.684C63.3988 107.856 63.2124 108.037 62.8395 108.4L59.3014 111.846C59.1912 111.954 59.136 112.008 59.1004 112.071C59.0689 112.128 59.0487 112.19 59.0409 112.255C59.0321 112.327 59.0451 112.403 59.0711 112.555L59.906 117.422C59.994 117.935 60.038 118.192 59.9553 118.344C59.8833 118.477 59.7554 118.57 59.6071 118.597C59.4366 118.629 59.2061 118.508 58.7451 118.265L54.3724 115.966C54.2361 115.894 54.168 115.858 54.0962 115.844C54.0327 115.832 53.9673 115.832 53.9038 115.844C53.832 115.858 53.7639 115.894 53.6277 115.966L49.2549 118.265C48.7939 118.508 48.5634 118.629 48.393 118.597C48.2447 118.57 48.1167 118.477 48.0447 118.344C47.962 118.192 48.006 117.935 48.0941 117.422L48.9289 112.555C48.9549 112.403 48.9679 112.327 48.9591 112.255C48.9513 112.19 48.9311 112.128 48.8996 112.071C48.864 112.008 48.8089 111.954 48.6986 111.846L45.1606 108.4C44.7877 108.037 44.6012 107.856 44.5785 107.684C44.5588 107.534 44.6076 107.384 44.7113 107.274C44.8304 107.149 45.088 107.111 45.603 107.036L50.4943 106.321C50.6464 106.299 50.7225 106.287 50.7887 106.257C50.8474 106.229 50.9002 106.191 50.9442 106.144C50.9939 106.09 51.0279 106.021 51.096 105.883L53.2827 101.453Z" fill="#747474" stroke="#747474" stroke-width="2" stroke-linecap="round" stroke-linejoin="round"/>
<path d="M83.2827 101.453C83.5131 100.986 83.6284 100.753 83.7848 100.678C83.9209 100.613 84.0791 100.613 84.2152 100.678C84.3717 100.753 84.4869 100.986 84.7174 101.453L86.9041 105.883C86.9721 106.021 87.0061 106.09 87.0558 106.144C87.0999 106.191 87.1527 106.229 87.2113 106.257C87.2776 106.287 87.3536 106.299 87.5057 106.321L92.397 107.036C92.9121 107.111 93.1696 107.149 93.2888 107.274C93.3925 107.384 93.4412 107.534 93.4215 107.684C93.3988 107.856 93.2124 108.037 92.8395 108.4L89.3014 111.846C89.1912 111.954 89.136 112.008 89.1004 112.071C89.0689 112.128 89.0487 112.19 89.0409 112.255C89.0321 112.327 89.0451 112.403 89.0711 112.555L89.906 117.422C89.994 117.935 90.038 118.192 89.9553 118.344C89.8833 118.477 89.7554 118.57 89.6071 118.597C89.4366 118.629 89.2061 118.508 88.7451 118.265L84.3724 115.966C84.2361 115.894 84.168 115.858 84.0962 115.844C84.0327 115.832 83.9673 115.832 83.9038 115.844C83.832 115.858 83.7639 115.894 83.6277 115.966L79.2549 118.265C78.7939 118.508 78.5634 118.629 78.393 118.597C78.2447 118.57 78.1167 118.477 78.0447 118.344C77.962 118.192 78.006 117.935 78.0941 117.422L78.9289 112.555C78.9549 112.403 78.9679 112.327 78.9591 112.255C78.9513 112.19 78.9311 112.128 78.8996 112.071C78.864 112.008 78.8089 111.954 78.6986 111.846L75.1606 108.4C74.7877 108.037 74.6012 107.856 74.5785 107.684C74.5588 107.534 74.6076 107.384 74.7113 107.274C74.8304 107.149 75.088 107.111 75.603 107.036L80.4943 106.321C80.6464 106.299 80.7225 106.287 80.7887 106.257C80.8474 106.229 80.9002 106.191 80.9442 106.144C80.9939 106.09 81.0279 106.021 81.096 105.883L83.2827 101.453Z" fill="#747474" stroke="#747474" stroke-width="2" stroke-linecap="round" stroke-linejoin="round"/>
<path d="M113.283 101.453C113.513 100.986 113.628 100.753 113.785 100.678C113.921 100.613 114.079 100.613 114.215 100.678C114.372 100.753 114.487 100.986 114.717 101.453L116.904 105.883C116.972 106.021 117.006 106.09 117.056 106.144C117.1 106.191 117.153 106.229 117.211 106.257C117.278 106.287 117.354 106.299 117.506 106.321L122.397 107.036C122.912 107.111 123.17 107.149 123.289 107.274C123.392 107.384 123.441 107.534 123.422 107.684C123.399 107.856 123.212 108.037 122.839 108.4L119.301 111.846C119.191 111.954 119.136 112.008 119.1 112.071C119.069 112.128 119.049 112.19 119.041 112.255C119.032 112.327 119.045 112.403 119.071 112.555L119.906 117.422C119.994 117.935 120.038 118.192 119.955 118.344C119.883 118.477 119.755 118.57 119.607 118.597C119.437 118.629 119.206 118.508 118.745 118.265L114.372 115.966C114.236 115.894 114.168 115.858 114.096 115.844C114.033 115.832 113.967 115.832 113.904 115.844C113.832 115.858 113.764 115.894 113.628 115.966L109.255 118.265C108.794 118.508 108.563 118.629 108.393 118.597C108.245 118.57 108.117 118.477 108.045 118.344C107.962 118.192 108.006 117.935 108.094 117.422L108.929 112.555C108.955 112.403 108.968 112.327 108.959 112.255C108.951 112.19 108.931 112.128 108.9 112.071C108.864 112.008 108.809 111.954 108.699 111.846L105.161 108.4C104.788 108.037 104.601 107.856 104.579 107.684C104.559 107.534 104.608 107.384 104.711 107.274C104.83 107.149 105.088 107.111 105.603 107.036L110.494 106.321C110.646 106.299 110.722 106.287 110.789 106.257C110.847 106.229 110.9 106.191 110.944 106.144C110.994 106.09 111.028 106.021 111.096 105.883L113.283 101.453Z" fill="#747474" stroke="#747474" stroke-width="2" stroke-linecap="round" stroke-linejoin="round"/>
<path d="M143.283 101.453C143.513 100.986 143.628 100.753 143.785 100.678C143.921 100.613 144.079 100.613 144.215 100.678C144.372 100.753 144.487 100.986 144.717 101.453L146.904 105.883C146.972 106.021 147.006 106.09 147.056 106.144C147.1 106.191 147.153 106.229 147.211 106.257C147.278 106.287 147.354 106.299 147.506 106.321L152.397 107.036C152.912 107.111 153.17 107.149 153.289 107.274C153.392 107.384 153.441 107.534 153.422 107.684C153.399 107.856 153.212 108.037 152.839 108.4L149.301 111.846C149.191 111.954 149.136 112.008 149.1 112.071C149.069 112.128 149.049 112.19 149.041 112.255C149.032 112.327 149.045 112.403 149.071 112.555L149.906 117.422C149.994 117.935 150.038 118.192 149.955 118.344C149.883 118.477 149.755 118.57 149.607 118.597C149.437 118.629 149.206 118.508 148.745 118.265L144.372 115.966C144.236 115.894 144.168 115.858 144.096 115.844C144.033 115.832 143.967 115.832 143.904 115.844C143.832 115.858 143.764 115.894 143.628 115.966L139.255 118.265C138.794 118.508 138.563 118.629 138.393 118.597C138.245 118.57 138.117 118.477 138.045 118.344C137.962 118.192 138.006 117.935 138.094 117.422L138.929 112.555C138.955 112.403 138.968 112.327 138.959 112.255C138.951 112.19 138.931 112.128 138.9 112.071C138.864 112.008 138.809 111.954 138.699 111.846L135.161 108.4C134.788 108.037 134.601 107.856 134.579 107.684C134.559 107.534 134.608 107.384 134.711 107.274C134.83 107.149 135.088 107.111 135.603 107.036L140.494 106.321C140.646 106.299 140.722 106.287 140.789 106.257C140.847 106.229 140.9 106.191 140.944 106.144C140.994 106.09 141.028 106.021 141.096 105.883L143.283 101.453Z" fill="#747474" stroke="#747474" stroke-width="2" stroke-linecap="round" stroke-linejoin="round"/>
</g>
<g filter="url(#filter0_d_3235_11326)">
<rect x="28.2109" y="12" width="191.579" height="130" rx="13.6842" fill="#202020" shape-rendering="crispEdges"/>
<circle cx="124.001" cy="38.2281" r="12.5439" fill="#747474"/>
<rect x="59.5703" y="64.4562" width="128.86" height="9.12281" rx="4.5614" fill="#747474"/>
<rect x="95.4912" y="78.1404" width="57.0175" height="9.12281" rx="4.5614" fill="#747474"/>
<path d="M54.7617 104.885C55.0246 104.353 55.156 104.087 55.3344 104.002C55.4896 103.928 55.6699 103.928 55.8252 104.002C56.0036 104.087 56.135 104.353 56.3978 104.885L58.8914 109.937C58.969 110.094 59.0078 110.173 59.0645 110.234C59.1147 110.288 59.1749 110.332 59.2418 110.363C59.3173 110.398 59.404 110.411 59.5775 110.436L65.1553 111.251C65.7426 111.337 66.0363 111.38 66.1722 111.523C66.2905 111.648 66.3461 111.82 66.3236 111.99C66.2977 112.186 66.0851 112.393 65.6599 112.807L61.6253 116.737C61.4995 116.86 61.4366 116.921 61.396 116.994C61.3601 117.058 61.3371 117.129 61.3282 117.202C61.3181 117.285 61.333 117.372 61.3626 117.545L62.3146 123.095C62.415 123.681 62.4652 123.974 62.3709 124.147C62.2888 124.298 62.1429 124.404 61.9738 124.436C61.7794 124.472 61.5166 124.333 60.9908 124.057L56.0044 121.435C55.849 121.353 55.7713 121.312 55.6895 121.296C55.617 121.282 55.5425 121.282 55.47 121.296C55.3882 121.312 55.3105 121.353 55.1552 121.435L50.1687 124.057C49.643 124.333 49.3801 124.472 49.1858 124.436C49.0167 124.404 48.8708 124.298 48.7887 124.147C48.6943 123.974 48.7445 123.681 48.8449 123.095L49.7969 117.545C49.8266 117.372 49.8414 117.285 49.8314 117.202C49.8225 117.129 49.7994 117.058 49.7635 116.994C49.7229 116.921 49.6601 116.86 49.5343 116.737L45.4997 112.807C45.0745 112.393 44.8618 112.186 44.836 111.99C44.8135 111.82 44.8691 111.648 44.9873 111.523C45.1232 111.38 45.4169 111.337 46.0043 111.251L51.582 110.436C51.7555 110.411 51.8422 110.398 51.9178 110.363C51.9846 110.332 52.0448 110.288 52.0951 110.234C52.1518 110.173 52.1905 110.094 52.2681 109.937L54.7617 104.885Z" fill="#747474" stroke="#747474" stroke-width="2.2807" stroke-linecap="round" stroke-linejoin="round"/>
<path d="M88.9727 104.885C89.2355 104.353 89.3669 104.087 89.5453 104.002C89.7005 103.928 89.8809 103.928 90.0361 104.002C90.2145 104.087 90.3459 104.353 90.6088 104.885L93.1023 109.937C93.1799 110.094 93.2187 110.173 93.2754 110.234C93.3256 110.288 93.3858 110.332 93.4527 110.363C93.5283 110.398 93.615 110.411 93.7884 110.436L99.3662 111.251C99.9536 111.337 100.247 111.38 100.383 111.523C100.501 111.648 100.557 111.82 100.535 111.99C100.509 112.186 100.296 112.393 99.8708 112.807L95.8362 116.737C95.7104 116.86 95.6475 116.921 95.607 116.994C95.571 117.058 95.548 117.129 95.5391 117.202C95.5291 117.285 95.5439 117.372 95.5736 117.545L96.5256 123.095C96.626 123.681 96.6762 123.974 96.5818 124.147C96.4997 124.298 96.3538 124.404 96.1847 124.436C95.9903 124.472 95.7275 124.333 95.2018 124.057L90.2153 121.435C90.06 121.353 89.9823 121.312 89.9004 121.296C89.828 121.282 89.7534 121.282 89.681 121.296C89.5991 121.312 89.5215 121.353 89.3661 121.435L84.3796 124.057C83.8539 124.333 83.5911 124.472 83.3967 124.436C83.2276 124.404 83.0817 124.298 82.9996 124.147C82.9053 123.974 82.9555 123.681 83.0559 123.095L84.0078 117.545C84.0375 117.372 84.0524 117.285 84.0423 117.202C84.0334 117.129 84.0104 117.058 83.9745 116.994C83.9339 116.921 83.871 116.86 83.7452 116.737L79.7106 112.807C79.2854 112.393 79.0728 112.186 79.0469 111.99C79.0244 111.82 79.08 111.648 79.1983 111.523C79.3342 111.38 79.6279 111.337 80.2152 111.251L85.793 110.436C85.9664 110.411 86.0532 110.398 86.1287 110.363C86.1956 110.332 86.2558 110.288 86.306 110.234C86.3627 110.173 86.4015 110.094 86.4791 109.937L88.9727 104.885Z" fill="#747474" stroke="#747474" stroke-width="2.2807" stroke-linecap="round" stroke-linejoin="round"/>
<path d="M123.183 104.885C123.445 104.353 123.577 104.087 123.755 104.002C123.911 103.928 124.091 103.928 124.246 104.002C124.424 104.087 124.556 104.353 124.819 104.885L127.312 109.937C127.39 110.094 127.429 110.173 127.485 110.234C127.536 110.288 127.596 110.332 127.663 110.363C127.738 110.398 127.825 110.411 127.998 110.436L133.576 111.251C134.164 111.337 134.457 111.38 134.593 111.523C134.711 111.648 134.767 111.82 134.744 111.99C134.719 112.186 134.506 112.393 134.081 112.807L130.046 116.737C129.92 116.86 129.858 116.921 129.817 116.994C129.781 117.058 129.758 117.129 129.749 117.202C129.739 117.285 129.754 117.372 129.784 117.545L130.736 123.095C130.836 123.681 130.886 123.974 130.792 124.147C130.71 124.298 130.564 124.404 130.395 124.436C130.2 124.472 129.937 124.333 129.412 124.057L124.425 121.435C124.27 121.353 124.192 121.312 124.11 121.296C124.038 121.282 123.963 121.282 123.891 121.296C123.809 121.312 123.731 121.353 123.576 121.435L118.59 124.057C118.064 124.333 117.801 124.472 117.607 124.436C117.438 124.404 117.292 124.298 117.21 124.147C117.115 123.974 117.165 123.681 117.266 123.095L118.218 117.545C118.247 117.372 118.262 117.285 118.252 117.202C118.243 117.129 118.22 117.058 118.184 116.994C118.144 116.921 118.081 116.86 117.955 116.737L113.921 112.807C113.495 112.393 113.283 112.186 113.257 111.99C113.234 111.82 113.29 111.648 113.408 111.523C113.544 111.38 113.838 111.337 114.425 111.251L120.003 110.436C120.176 110.411 120.263 110.398 120.339 110.363C120.406 110.332 120.466 110.288 120.516 110.234C120.573 110.173 120.611 110.094 120.689 109.937L123.183 104.885Z" fill="#747474" stroke="#747474" stroke-width="2.2807" stroke-linecap="round" stroke-linejoin="round"/>
<path d="M157.394 104.885C157.656 104.353 157.788 104.087 157.966 104.002C158.121 103.928 158.302 103.928 158.457 104.002C158.635 104.087 158.767 104.353 159.03 104.885L161.523 109.937C161.601 110.094 161.64 110.173 161.696 110.234C161.747 110.288 161.807 110.332 161.874 110.363C161.949 110.398 162.036 110.411 162.209 110.436L167.787 111.251C168.374 111.337 168.668 111.38 168.804 111.523C168.922 111.648 168.978 111.82 168.955 111.99C168.93 112.186 168.717 112.393 168.292 112.807L164.257 116.737C164.131 116.86 164.068 116.921 164.028 116.994C163.992 117.058 163.969 117.129 163.96 117.202C163.95 117.285 163.965 117.372 163.994 117.545L164.946 123.095C165.047 123.681 165.097 123.974 165.003 124.147C164.921 124.298 164.775 124.404 164.606 124.436C164.411 124.472 164.148 124.333 163.623 124.057L158.636 121.435C158.481 121.353 158.403 121.312 158.321 121.296C158.249 121.282 158.174 121.282 158.102 121.296C158.02 121.312 157.942 121.353 157.787 121.435L152.801 124.057C152.275 124.333 152.012 124.472 151.818 124.436C151.649 124.404 151.503 124.298 151.42 124.147C151.326 123.974 151.376 123.681 151.477 123.095L152.429 117.545C152.458 117.372 152.473 117.285 152.463 117.202C152.454 117.129 152.431 117.058 152.395 116.994C152.355 116.921 152.292 116.86 152.166 116.737L148.132 112.807C147.706 112.393 147.494 112.186 147.468 111.99C147.445 111.82 147.501 111.648 147.619 111.523C147.755 111.38 148.049 111.337 148.636 111.251L154.214 110.436C154.387 110.411 154.474 110.398 154.55 110.363C154.616 110.332 154.677 110.288 154.727 110.234C154.784 110.173 154.822 110.094 154.9 109.937L157.394 104.885Z" fill="#747474" stroke="#747474" stroke-width="2.2807" stroke-linecap="round" stroke-linejoin="round"/>
<path d="M191.604 104.885C191.866 104.353 191.998 104.087 192.176 104.002C192.331 103.928 192.512 103.928 192.667 104.002C192.845 104.087 192.977 104.353 193.24 104.885L195.733 109.937C195.811 110.094 195.85 110.173 195.906 110.234C195.956 110.288 196.017 110.332 196.084 110.363C196.159 110.398 196.246 110.411 196.419 110.436L201.997 111.251C202.584 111.337 202.878 111.38 203.014 111.523C203.132 111.648 203.188 111.82 203.165 111.99C203.14 112.186 202.927 112.393 202.502 112.807L198.467 116.737C198.341 116.86 198.278 116.921 198.238 116.994C198.202 117.058 198.179 117.129 198.17 117.202C198.16 117.285 198.175 117.372 198.204 117.545L199.156 123.095C199.257 123.681 199.307 123.974 199.213 124.147C199.131 124.298 198.985 124.404 198.816 124.436C198.621 124.472 198.358 124.333 197.833 124.057L192.846 121.435C192.691 121.353 192.613 121.312 192.531 121.296C192.459 121.282 192.384 121.282 192.312 121.296C192.23 121.312 192.152 121.353 191.997 121.435L187.01 124.057C186.485 124.333 186.222 124.472 186.028 124.436C185.858 124.404 185.713 124.298 185.63 124.147C185.536 123.974 185.586 123.681 185.687 123.095L186.639 117.545C186.668 117.372 186.683 117.285 186.673 117.202C186.664 117.129 186.641 117.058 186.605 116.994C186.565 116.921 186.502 116.86 186.376 116.737L182.341 112.807C181.916 112.393 181.704 112.186 181.678 111.99C181.655 111.82 181.711 111.648 181.829 111.523C181.965 111.38 182.259 111.337 182.846 111.251L188.424 110.436C188.597 110.411 188.684 110.398 188.76 110.363C188.826 110.332 188.887 110.288 188.937 110.234C188.994 110.173 189.032 110.094 189.11 109.937L191.604 104.885Z" fill="#747474" stroke="#747474" stroke-width="2.2807" stroke-linecap="round" stroke-linejoin="round"/>
</g>
<defs>
<filter id="filter0_d_3235_11326" x="4.21094" y="0" width="239.579" height="178" filterUnits="userSpaceOnUse" color-interpolation-filters="sRGB">
<feFlood flood-opacity="0" result="BackgroundImageFix"/>
<feColorMatrix in="SourceAlpha" type="matrix" values="0 0 0 0 0 0 0 0 0 0 0 0 0 0 0 0 0 0 127 0" result="hardAlpha"/>
<feOffset dy="12"/>
<feGaussianBlur stdDeviation="12"/>
<feComposite in2="hardAlpha" operator="out"/>
<feColorMatrix type="matrix" values="0 0 0 0 0.0901961 0 0 0 0 0.0901961 0 0 0 0 0.0901961 0 0 0 1 0"/>
<feBlend mode="normal" in2="BackgroundImageFix" result="effect1_dropShadow_3235_11326"/>
<feBlend mode="normal" in="SourceGraphic" in2="effect1_dropShadow_3235_11326" result="shape"/>
</filter>
</defs>
</svg>
