<svg width="12" height="14" viewBox="0 0 12 14" fill="none" xmlns="http://www.w3.org/2000/svg">
<path fill-rule="evenodd" clip-rule="evenodd" d="M6.64081 13.0311C6.42855 13.2416 6.21493 13.4534 6.0013 13.6671C5.78768 13.4534 5.57405 13.2416 5.3618 13.0311C2.9245 10.6143 0.667969 8.37663 0.667969 5.66707C0.667969 2.72155 3.05578 0.33374 6.0013 0.33374C8.94682 0.33374 11.3346 2.72155 11.3346 5.66707C11.3346 8.37663 9.07811 10.6143 6.64081 13.0311ZM8.0013 5.66707C8.0013 6.77164 7.10587 7.66707 6.0013 7.66707C4.89673 7.66707 4.0013 6.77164 4.0013 5.66707C4.0013 4.5625 4.89673 3.66707 6.0013 3.66707C7.10587 3.66707 8.0013 4.5625 8.0013 5.66707Z" fill="#747474"/>
</svg>
