<svg width="24" height="25" viewBox="0 0 24 25" fill="none" xmlns="http://www.w3.org/2000/svg">
<path fill-rule="evenodd" clip-rule="evenodd" d="M11 4.52173C7.13401 4.52173 4 7.65574 4 11.5217C4 15.3877 7.13401 18.5217 11 18.5217C14.866 18.5217 18 15.3877 18 11.5217C18 7.65574 14.866 4.52173 11 4.52173ZM2 11.5217C2 6.55117 6.02944 2.52173 11 2.52173C15.9706 2.52173 20 6.55117 20 11.5217C20 16.4923 15.9706 20.5217 11 20.5217C6.02944 20.5217 2 16.4923 2 11.5217Z" fill="#E8E8E8"/>
<path fill-rule="evenodd" clip-rule="evenodd" d="M15.9433 16.4645C16.3338 16.074 16.967 16.074 17.3575 16.4645L21.7075 20.8145C22.098 21.205 22.098 21.8382 21.7075 22.2287C21.317 22.6193 20.6838 22.6193 20.2933 22.2287L15.9433 17.8787C15.5528 17.4882 15.5528 16.855 15.9433 16.4645Z" fill="#E8E8E8"/>
</svg>
