<svg width="12" height="11" viewBox="0 0 12 11" fill="none" xmlns="http://www.w3.org/2000/svg">
<path d="M5.64133 1.7269C5.75657 1.49343 5.81419 1.3767 5.89241 1.3394C5.96047 1.30695 6.03954 1.30695 6.1076 1.3394C6.18583 1.3767 6.24345 1.49343 6.35869 1.7269L7.45203 3.94189C7.48605 4.01081 7.50306 4.04527 7.52792 4.07203C7.54994 4.09572 7.57633 4.11492 7.60566 4.12856C7.63878 4.14396 7.6768 4.14951 7.75286 4.16063L10.1985 4.5181C10.456 4.55574 10.5848 4.57456 10.6444 4.63746C10.6962 4.69219 10.7206 4.76739 10.7108 4.84213C10.6994 4.92803 10.6062 5.01883 10.4197 5.20044L8.65072 6.92345C8.59558 6.97717 8.56801 7.00402 8.55021 7.03598C8.53446 7.06427 8.52435 7.09535 8.52046 7.1275C8.51605 7.16381 8.52256 7.20174 8.53557 7.27761L8.95298 9.7113C8.997 9.96799 9.01902 10.0963 8.97765 10.1725C8.94166 10.2388 8.87768 10.2852 8.80353 10.299C8.71831 10.3148 8.60306 10.2542 8.37256 10.1329L6.18619 8.98316C6.11807 8.94734 6.08401 8.92942 6.04812 8.92239C6.01635 8.91616 5.98367 8.91616 5.9519 8.92239C5.91601 8.92942 5.88195 8.94734 5.81383 8.98316L3.62746 10.1329C3.39696 10.2542 3.28171 10.3148 3.19649 10.299C3.12234 10.2852 3.05836 10.2388 3.02237 10.1725C2.981 10.0963 3.00301 9.96799 3.04704 9.7113L3.46444 7.27761C3.47746 7.20174 3.48396 7.16381 3.47956 7.1275C3.47566 7.09535 3.46556 7.06427 3.4498 7.03598C3.43201 7.00402 3.40444 6.97717 3.34929 6.92345L1.58028 5.20043C1.39383 5.01883 1.30061 4.92803 1.28926 4.84213C1.27939 4.76739 1.30378 4.69219 1.35563 4.63746C1.41522 4.57456 1.54399 4.55574 1.80152 4.5181L4.24716 4.16063C4.32321 4.14951 4.36124 4.14396 4.39436 4.12856C4.42368 4.11492 4.45008 4.09572 4.47209 4.07203C4.49695 4.04527 4.51396 4.01081 4.54799 3.94189L5.64133 1.7269Z" fill="#DAFF00" stroke="#DAFF00" stroke-width="1.33" stroke-linecap="round" stroke-linejoin="round"/>
</svg>
