<svg width="14" height="14" viewBox="0 0 14 14" fill="none" xmlns="http://www.w3.org/2000/svg">
<path d="M6.52144 1.30241C6.6751 0.991122 6.75193 0.835475 6.85623 0.785746C6.94697 0.742479 7.0524 0.742479 7.14314 0.785746C7.24744 0.835475 7.32427 0.991121 7.47793 1.30241L8.93571 4.25573C8.98108 4.34763 9.00376 4.39358 9.03691 4.42925C9.06626 4.46084 9.10145 4.48644 9.14055 4.50462C9.18471 4.52515 9.23541 4.53256 9.33682 4.54739L12.5977 5.02401C12.9411 5.0742 13.1127 5.09929 13.1922 5.18316C13.2613 5.25613 13.2938 5.3564 13.2807 5.45605C13.2656 5.57059 13.1413 5.69166 12.8927 5.93379L10.534 8.23115C10.4604 8.30276 10.4237 8.33857 10.4 8.38118C10.379 8.4189 10.3655 8.46035 10.3603 8.50321C10.3544 8.55162 10.3631 8.6022 10.3804 8.70336L10.937 11.9483C10.9957 12.2905 11.025 12.4617 10.9699 12.5632C10.9219 12.6516 10.8366 12.7135 10.7377 12.7319C10.6241 12.7529 10.4704 12.6721 10.1631 12.5105L7.24793 10.9774C7.1571 10.9297 7.11168 10.9058 7.06384 10.8964C7.02147 10.8881 6.9779 10.8881 6.93554 10.8964C6.88769 10.9058 6.84227 10.9297 6.75145 10.9774L3.83629 12.5105C3.52895 12.6721 3.37528 12.7529 3.26166 12.7319C3.1628 12.7135 3.07749 12.6516 3.0295 12.5632C2.97434 12.4617 3.00369 12.2905 3.06239 11.9483L3.61893 8.70336C3.63628 8.6022 3.64496 8.55162 3.63909 8.50321C3.63389 8.46035 3.62042 8.4189 3.59941 8.38118C3.57569 8.33857 3.53893 8.30276 3.4654 8.23115L1.10671 5.93379C0.858116 5.69166 0.733818 5.57059 0.718692 5.45605C0.705532 5.3564 0.738043 5.25613 0.807175 5.18316C0.886631 5.09929 1.05832 5.0742 1.4017 5.02401L4.66255 4.54739C4.76396 4.53256 4.81466 4.52515 4.85882 4.50462C4.89792 4.48644 4.93312 4.46084 4.96246 4.42925C4.99561 4.39358 5.01829 4.34763 5.06366 4.25573L6.52144 1.30241Z" stroke="#454545" stroke-width="1.33333" stroke-linecap="round" stroke-linejoin="round"/>
</svg>
