<svg width="16" height="16" viewBox="0 0 16 16" fill="none" xmlns="http://www.w3.org/2000/svg">
<g clip-path="url(#clip0_2786_10271)">
<path fill-rule="evenodd" clip-rule="evenodd" d="M8 5.33333C6.52724 5.33333 5.33333 6.52724 5.33333 8C5.33333 9.47276 6.52724 10.6667 8 10.6667C9.47276 10.6667 10.6667 9.47276 10.6667 8C10.6667 6.52724 9.47276 5.33333 8 5.33333ZM4 8C4 5.79086 5.79086 4 8 4C10.2091 4 12 5.79086 12 8C12 10.2091 10.2091 12 8 12C5.79086 12 4 10.2091 4 8Z" fill="#252525"/>
<path fill-rule="evenodd" clip-rule="evenodd" d="M7.99967 0C8.36786 0 8.66634 0.298477 8.66634 0.666667V2C8.66634 2.36819 8.36786 2.66667 7.99967 2.66667C7.63148 2.66667 7.33301 2.36819 7.33301 2V0.666667C7.33301 0.298477 7.63148 0 7.99967 0Z" fill="#252525"/>
<path fill-rule="evenodd" clip-rule="evenodd" d="M7.99967 13.3333C8.36786 13.3333 8.66634 13.6318 8.66634 14V15.3333C8.66634 15.7015 8.36786 16 7.99967 16C7.63148 16 7.33301 15.7015 7.33301 15.3333V14C7.33301 13.6318 7.63148 13.3333 7.99967 13.3333Z" fill="#252525"/>
<path fill-rule="evenodd" clip-rule="evenodd" d="M2.34175 2.34208C2.6021 2.08173 3.02421 2.08173 3.28456 2.34208L4.23122 3.28875C4.49157 3.5491 4.49157 3.97121 4.23122 4.23156C3.97087 4.49191 3.54876 4.49191 3.28841 4.23156L2.34175 3.28489C2.0814 3.02454 2.0814 2.60243 2.34175 2.34208Z" fill="#252525"/>
<path fill-rule="evenodd" clip-rule="evenodd" d="M11.7685 11.7685C12.0289 11.5082 12.451 11.5082 12.7113 11.7685L13.658 12.7152C13.9183 12.9755 13.9183 13.3976 13.658 13.658C13.3976 13.9183 12.9755 13.9183 12.7152 13.658L11.7685 12.7113C11.5082 12.451 11.5082 12.0289 11.7685 11.7685Z" fill="#252525"/>
<path fill-rule="evenodd" clip-rule="evenodd" d="M0 8.00001C0 7.63182 0.298477 7.33334 0.666667 7.33334H2C2.36819 7.33334 2.66667 7.63182 2.66667 8.00001C2.66667 8.3682 2.36819 8.66668 2 8.66668H0.666667C0.298477 8.66668 0 8.3682 0 8.00001Z" fill="#252525"/>
<path fill-rule="evenodd" clip-rule="evenodd" d="M13.333 8.00001C13.333 7.63182 13.6315 7.33334 13.9997 7.33334H15.333C15.7012 7.33334 15.9997 7.63182 15.9997 8.00001C15.9997 8.3682 15.7012 8.66668 15.333 8.66668H13.9997C13.6315 8.66668 13.333 8.3682 13.333 8.00001Z" fill="#252525"/>
<path fill-rule="evenodd" clip-rule="evenodd" d="M4.23122 11.7685C4.49157 12.0289 4.49157 12.451 4.23122 12.7113L3.28456 13.658C3.02421 13.9183 2.6021 13.9183 2.34175 13.658C2.0814 13.3976 2.0814 12.9755 2.34175 12.7152L3.28841 11.7685C3.54876 11.5082 3.97087 11.5082 4.23122 11.7685Z" fill="#252525"/>
<path fill-rule="evenodd" clip-rule="evenodd" d="M13.658 2.34208C13.9183 2.60243 13.9183 3.02454 13.658 3.28489L12.7113 4.23156C12.451 4.49191 12.0289 4.49191 11.7685 4.23156C11.5082 3.97121 11.5082 3.5491 11.7685 3.28875L12.7152 2.34208C12.9755 2.08173 13.3976 2.08173 13.658 2.34208Z" fill="#252525"/>
</g>
<defs>
<clipPath id="clip0_2786_10271">
<rect width="16" height="16" fill="white"/>
</clipPath>
</defs>
</svg>
