<svg width="18" height="20" viewBox="0 0 18 20" fill="none" xmlns="http://www.w3.org/2000/svg">
<path d="M6.65491 16.1355C8.2124 16.1355 9.475 15.0205 9.475 13.3154V0.666748H12.8571C12.6674 2.97351 14.9605 5.20179 17.4895 5.15083V8.33113C15.3267 8.33113 13.4876 7.41663 12.8475 6.9091V13.3154C12.8475 16.1355 10.629 19.3334 6.65491 19.3334C2.68085 19.3334 0.510742 16.1355 0.510742 13.3154C0.510742 9.33509 4.72292 7.02667 7.51273 7.59088V10.8302C7.37239 10.7806 7.01046 10.7072 6.70218 10.7072C5.13175 10.6493 3.83481 11.923 3.83481 13.3154C3.83481 14.8729 5.09741 16.1355 6.65491 16.1355Z" fill="#E8E8E8"/>
</svg>
