<svg width="22" height="22" viewBox="0 0 22 22" fill="none" xmlns="http://www.w3.org/2000/svg">
<path d="M11 0.999878C13.5013 3.73823 14.9228 7.29191 15 10.9999C14.9228 14.7078 13.5013 18.2615 11 20.9999M11 0.999878C8.49872 3.73823 7.07725 7.29191 7 10.9999C7.07725 14.7078 8.49872 18.2615 11 20.9999M11 0.999878C5.47715 0.999878 1 5.47703 1 10.9999C1 16.5227 5.47715 20.9999 11 20.9999M11 0.999878C16.5228 0.999878 21 5.47703 21 10.9999C21 16.5227 16.5228 20.9999 11 20.9999M1.50002 7.99988H20.5M1.5 13.9999H20.5" stroke="#E8E8E8" stroke-width="2" stroke-linecap="round" stroke-linejoin="round"/>
</svg>
