<svg width="24" height="18" viewBox="0 0 24 18" fill="none" xmlns="http://www.w3.org/2000/svg">
<path fill-rule="evenodd" clip-rule="evenodd" d="M21.2436 0.97472C22.2556 1.24717 23.0534 2.04504 23.3259 3.05698C23.8319 4.90572 23.8124 8.75887 23.8124 8.75887C23.8124 8.75887 23.8124 12.5926 23.3259 14.4413C23.0534 15.4532 22.2556 16.2511 21.2436 16.5236C19.3949 17.0101 12 17.0101 12 17.0101C12 17.0101 4.62447 17.0101 2.75627 16.5041C1.74433 16.2317 0.946455 15.4338 0.674009 14.4218C0.1875 12.5926 0.1875 8.73941 0.1875 8.73941C0.1875 8.73941 0.1875 4.90572 0.674009 3.05698C0.946455 2.04504 1.76379 1.2277 2.75627 0.95526C4.60501 0.46875 12 0.46875 12 0.46875C12 0.46875 19.3949 0.46875 21.2436 0.97472ZM15.795 8.60429L9.64551 12.1461V5.0625L15.795 8.60429Z" fill="#E8E8E8"/>
</svg>
